<svg width="24" height="24" viewBox="0 0 24 24" fill="none" xmlns="http://www.w3.org/2000/svg">
<g clip-path="url(#clip0_2_287)">
<path d="M12 24C18.6274 24 24 18.6274 24 12C24 5.37258 18.6274 0 12 0C5.37258 0 0 5.37258 0 12C0 18.6274 5.37258 24 12 24Z" fill="#2250F5"/>
<path d="M11.9846 3.46667C7.54189 3.46667 3.89211 6.86223 3.48856 11.2H16.2512V12.7111H3.48145C3.84322 17.0916 7.51167 20.5333 11.9854 20.5333C16.6983 20.5333 20.5188 16.7129 20.5188 12C20.5188 7.28712 16.6983 3.46667 11.9854 3.46667H11.9846Z" fill="white"/>
</g>
<defs>
<clipPath id="clip0_2_287">
<rect width="24" height="24" fill="white"/>
</clipPath>
</defs>
</svg>
