<svg width="24" height="24" viewBox="0 0 24 24" fill="none" xmlns="http://www.w3.org/2000/svg">
<path d="M12 24C18.6274 24 24 18.6274 24 12C24 5.37258 18.6274 0 12 0C5.37258 0 0 5.37258 0 12C0 18.6274 5.37258 24 12 24Z" fill="#687EE3"/>
<path d="M12.3111 2.88889V15.6089L6.53333 12.2222L12.3111 2.88889Z" fill="white"/>
<path d="M12.3111 2.86845V15.5884L18.0889 12.2018L12.3111 2.86845Z" fill="#C3CCF3"/>
<path d="M12.3111 16.4462V21.0711L6.53333 13.0827L12.3111 16.4462Z" fill="white"/>
<path d="M12.3111 16.4284V21.0533L18.0889 13.064L12.3111 16.4284Z" fill="#C3CCF3"/>
<path d="M12.3111 15.6569L18.0889 12.2702L12.3111 9.65867V15.6569Z" fill="#8597E8"/>
<path d="M12.3111 15.6569L6.53333 12.2702L12.3111 9.65867V15.6569Z" fill="#C3CCF3"/>
</svg>
