<svg width="24" height="24" viewBox="0 0 24 24" fill="none" xmlns="http://www.w3.org/2000/svg">
<g clip-path="url(#clip0_2_279)">
<path d="M12 24C18.6274 24 24 18.6274 24 12C24 5.37258 18.6274 0 12 0C5.37258 0 0 5.37258 0 12C0 18.6274 5.37258 24 12 24Z" fill="#687EE3"/>
<path d="M12.3105 2.88953V15.6095L6.53333 12.2229L12.3105 2.88953Z" fill="white"/>
<path d="M12.3104 2.86857V15.5886L18.0895 12.2019L12.3104 2.86857Z" fill="#C3CCF3"/>
<path d="M12.3105 16.4457V21.0724L6.53333 13.0819L12.3105 16.4457Z" fill="white"/>
<path d="M12.3104 16.4286V21.0533L18.0895 13.0648L12.3104 16.4286Z" fill="#C3CCF3"/>
<path d="M12.3104 15.6571L18.0895 12.2705L12.3104 9.65905V15.6571Z" fill="#8597E8"/>
<path d="M12.3105 15.6571L6.53333 12.2705L12.3105 9.65905V15.6571Z" fill="#C3CCF3"/>
</g>
<defs>
<clipPath id="clip0_2_279">
<rect width="24" height="24" fill="white"/>
</clipPath>
</defs>
</svg>
