<svg width="24" height="24" viewBox="0 0 24 24" fill="none" xmlns="http://www.w3.org/2000/svg">
<path d="M24 12C24 18.6274 18.6274 24 12 24C5.37258 24 6.04259e-09 18.6274 6.04259e-09 12C6.04259e-09 5.37258 5.37258 0 12 0C18.6274 0 24 5.37258 24 12Z" fill="white"/>
<path fill-rule="evenodd" clip-rule="evenodd" d="M19.5821 21.1693L12.0115 13.5124L4.33539 21.2269C5.86101 22.2439 8.25021 23.9807 11.9347 23.9998C15.6193 24.019 18.5746 22.1864 19.5725 21.1789L19.5821 21.1693ZM21.1557 4.3202L13.4796 11.9771C16.0511 14.539 18.5842 17.1297 21.1269 19.7108C25.1089 14.6254 24.7443 9.38644 21.1557 4.3106V4.3202ZM2.77138 19.5957L9.42082 1.89263L0.0943317 11.2767C-0.385426 14.0113 1.03466 17.4847 2.77138 19.5957ZM6.27361 16.1126C6.75336 15.9879 17.3272 5.12619 19.6013 2.87133C18.4211 1.29773 14.3719 -0.0647834 12.3473 0.00238262L6.27361 16.1126Z" fill="url(#paint0_linear_6_64)"/>
<defs>
<linearGradient id="paint0_linear_6_64" x1="6.57241" y1="22.7209" x2="18.4896" y2="1.89939" gradientUnits="userSpaceOnUse">
<stop stop-color="#850000"/>
<stop offset="0.251" stop-color="#C70158"/>
<stop offset="0.4824" stop-color="#DE1E41"/>
<stop offset="0.6392" stop-color="#F63B2A"/>
<stop offset="1" stop-color="#FF8700"/>
</linearGradient>
</defs>
</svg>
