<svg width="37" height="30" viewBox="0 0 37 30" fill="none" xmlns="http://www.w3.org/2000/svg">
<path d="M16.089 0.277101C13.9678 -0.182251 10.1288 0.0313759 8.79029 5.31227C7.45179 10.5932 7.93852 13.1722 6.96617 16.1198C5.72633 19.8776 0.886496 21.4904 0.762622 24.5951C0.640941 27.6656 3.43851 28.8942 5.99272 28.8942C8.54692 28.8942 11.5879 27.2981 12.683 25.9466C16.3882 21.3741 13.7781 16.3666 14.8721 16.8581C15.9662 17.3495 16.4847 21.2203 18.8865 26.0695C20.8323 30 24.8752 30 27.4009 30C29.7118 30 32.0599 29.0359 32.631 25.8238C33.4828 21.0343 28.7383 20.9115 30.1985 16.2438C31.7069 11.4211 35.0635 9.11992 35.7936 7.15522C36.5237 5.19052 35.6719 -0.460077 30.5635 0.0313748C25.4551 0.522827 24.6033 6.66376 22.7792 17.717C22.5216 19.281 18.1641 18.1974 18.8865 4.32937C19.0082 1.99608 17.7914 0.644583 16.089 0.275994V0.277101Z" fill="url(#paint0_linear_17_166)"/>
<defs>
<linearGradient id="paint0_linear_17_166" x1="35.8637" y1="30" x2="0.757565" y2="0.00141125" gradientUnits="userSpaceOnUse">
<stop stop-color="#FF9D0A"/>
<stop offset="1" stop-color="#FF0F00"/>
</linearGradient>
</defs>
</svg>
