<svg width="24" height="24" viewBox="0 0 24 24" fill="none" xmlns="http://www.w3.org/2000/svg">
<g clip-path="url(#clip0_2_283)">
<path d="M12.001 24.0019C18.6289 24.0019 24.0019 18.6289 24.0019 12.001C24.0019 5.37301 18.6289 0 12.001 0C5.37301 0 0 5.37301 0 12.001C0 18.6289 5.37301 24.0019 12.001 24.0019Z" fill="#EA3331"/>
<path d="M7.73698 15.5447C6.96118 15.5447 6.31947 15.3589 5.81185 14.9835C5.30423 14.6099 5.06287 14.0736 5.06287 13.407C5.06287 13.2729 5.08968 13.0871 5.1165 12.8725C5.19695 12.3917 5.33104 11.8286 5.49195 11.1619C5.94594 9.36898 7.09719 8.4591 8.96868 8.4591C9.47822 8.4591 9.93029 8.53955 10.3326 8.72536C10.7329 8.88626 11.0547 9.12571 11.2942 9.47434C11.5355 9.79424 11.6428 10.1965 11.6428 10.6505C11.6428 10.7846 11.616 10.9704 11.5892 11.16C11.4838 11.7481 11.3746 12.3094 11.2405 12.8706C10.9992 13.7805 10.5988 14.4471 10.0356 14.8762C9.47248 15.3053 8.69859 15.5467 7.7638 15.5467H7.73698V15.5447ZM7.87107 14.1272C8.24652 14.1272 8.56642 14.0219 8.80586 13.8073C9.07212 13.5928 9.25985 13.2729 9.36712 12.817C9.52803 12.2021 9.63338 11.6677 9.71575 11.2117C9.74257 11.0777 9.74257 10.9455 9.74257 10.7827C9.74257 10.1946 9.42267 9.90151 8.80778 9.90151C8.43233 9.90151 8.11243 10.0069 7.84617 10.2214C7.57991 10.4359 7.39218 10.7558 7.28491 11.2117C7.17956 11.6408 7.04355 12.1734 6.93628 12.817C6.90946 12.9511 6.90946 13.0871 6.90946 13.2193C6.90946 13.8341 7.23128 14.1272 7.87107 14.1272Z" fill="white"/>
<path d="M12.6312 15.4643C12.5508 15.4643 12.4971 15.4375 12.4703 15.3838C12.4435 15.3302 12.4167 15.2785 12.4435 15.198L13.8074 8.80581C13.8342 8.72536 13.861 8.67172 13.9127 8.62C13.9644 8.56828 14.0468 8.53955 14.0985 8.53955H16.7458C17.468 8.53955 18.0561 8.70046 18.51 8.99354C18.964 9.28662 19.1824 9.74443 19.1824 10.3057C19.1824 10.4666 19.1556 10.6256 19.1288 10.8152C18.9679 11.5642 18.6192 12.1255 18.1384 12.4741C17.6289 12.8227 16.9623 13.0085 16.106 13.0085H14.769L14.315 15.1482C14.315 15.2287 14.2613 15.2823 14.2096 15.334C14.1579 15.3857 14.0755 15.4145 14.0238 15.4145H12.6868L12.6331 15.4681L12.6312 15.4643ZM16.1328 11.7194C16.3991 11.7194 16.6424 11.6389 16.855 11.5048C17.0695 11.3439 17.2036 11.1294 17.2841 10.8631C17.3109 10.7578 17.3109 10.6486 17.3109 10.5681C17.3109 10.3823 17.2573 10.2482 17.15 10.139C17.0427 10.0299 16.855 9.97813 16.5619 9.97813H15.3858L15.0103 11.7424H16.1597L16.1328 11.7194Z" fill="white"/>
</g>
<defs>
<clipPath id="clip0_2_283">
<rect width="24" height="24" fill="white"/>
</clipPath>
</defs>
</svg>
