<svg width="26" height="26" viewBox="0 0 26 26" fill="none" xmlns="http://www.w3.org/2000/svg">
<g clip-path="url(#clip0_2_248)">
<path d="M19.0783 1.00016C19.0021 0.593906 18.7279 0.253672 18.347 0.09625C17.9662 -0.0611719 17.5295 -0.0154688 17.1892 0.218125L12.9998 3.1025L8.81033 0.213047C8.47009 -0.0205469 8.03337 -0.06625 7.65252 0.0911718C7.27166 0.248594 6.99744 0.588828 6.92127 0.995078L6.00212 5.99703L1.00017 6.92125C0.593921 6.99742 0.253687 7.27164 0.0962652 7.6525C-0.0611567 8.03336 -0.0154535 8.47008 0.21814 8.81031L3.10252 12.9998L0.213062 17.1892C-0.0205317 17.5295 -0.0662348 17.9662 0.0911871 18.347C0.248609 18.7279 0.588843 19.0072 0.995093 19.0783L5.99705 19.9974L6.91619 24.9994C6.99236 25.4056 7.26658 25.7459 7.64744 25.9033C8.0283 26.0607 8.46502 26.015 8.80525 25.7814L12.9998 22.897L17.1892 25.7865C17.5295 26.0201 17.9662 26.0658 18.347 25.9084C18.7279 25.7509 19.0021 25.4107 19.0783 25.0045L19.9974 20.0025L24.9994 19.0834C25.4056 19.0072 25.7459 18.733 25.9033 18.3521C26.0607 17.9712 26.015 17.5345 25.7814 17.1943L22.897 12.9998L25.7865 8.81031C26.0201 8.47008 26.0658 8.03336 25.9084 7.6525C25.751 7.27164 25.4107 6.99742 25.0045 6.92125L20.0025 6.00211L19.0783 1.00016ZM13.6904 5.5857L17.0217 3.29039L17.7529 7.26656C17.8443 7.76422 18.2353 8.15523 18.733 8.24664L22.7092 8.97789L20.4138 12.3091C20.1244 12.7255 20.1244 13.274 20.4138 13.6904L22.7092 17.0216L18.733 17.7529C18.2353 17.8443 17.8443 18.2353 17.7529 18.733L17.0217 22.7091L13.6904 20.4138C13.274 20.1244 12.7256 20.1244 12.3092 20.4138L8.97791 22.7091L8.24666 18.733C8.15525 18.2353 7.76423 17.8443 7.26658 17.7529L3.29041 17.0216L5.58572 13.6904C5.87517 13.274 5.87517 12.7255 5.58572 12.3091L3.29041 8.97789L7.26658 8.24664C7.76423 8.15523 8.15525 7.76422 8.24666 7.26656L8.97791 3.29039L12.3092 5.5857C12.7256 5.87516 13.274 5.87516 13.6904 5.5857ZM12.9998 18.6873C14.5082 18.6873 15.9548 18.088 17.0215 17.0214C18.0881 15.9548 18.6873 14.5082 18.6873 12.9998C18.6873 11.4913 18.0881 10.0447 17.0215 8.9781C15.9548 7.91148 14.5082 7.31227 12.9998 7.31227C11.4914 7.31227 10.0447 7.91148 8.97811 8.9781C7.9115 10.0447 7.31228 11.4913 7.31228 12.9998C7.31228 14.5082 7.9115 15.9548 8.97811 17.0214C10.0447 18.088 11.4914 18.6873 12.9998 18.6873ZM9.74978 12.9998C9.74978 12.1378 10.0922 11.3112 10.7017 10.7017C11.3112 10.0922 12.1378 9.74977 12.9998 9.74977C13.8617 9.74977 14.6884 10.0922 15.2979 10.7017C15.9074 11.3112 16.2498 12.1378 16.2498 12.9998C16.2498 13.8617 15.9074 14.6884 15.2979 15.2979C14.6884 15.9074 13.8617 16.2498 12.9998 16.2498C12.1378 16.2498 11.3112 15.9074 10.7017 15.2979C10.0922 14.6884 9.74978 13.8617 9.74978 12.9998Z" fill="white"/>
</g>
<defs>
<clipPath id="clip0_2_248">
<rect width="26" height="26" fill="white"/>
</clipPath>
</defs>
</svg>
