<svg width="20" height="26" viewBox="0 0 20 26" fill="none" xmlns="http://www.w3.org/2000/svg">
<g clip-path="url(#clip0_2_187)">
<path d="M11.8496 1.625C5.57813 1.625 0.5 6.71836 0.5 13C0.5 19.2816 5.57813 24.375 11.8496 24.375C14.927 24.375 17.7148 23.1461 19.7613 21.1555C20.0152 20.9066 20.0813 20.5207 19.9188 20.2059C19.7563 19.891 19.4059 19.7133 19.0555 19.7742C18.5578 19.8605 18.05 19.9062 17.527 19.9062C12.6062 19.9062 8.61484 15.9047 8.61484 10.9687C8.61484 7.62734 10.443 4.71758 13.1496 3.18398C13.4594 3.00625 13.6168 2.65078 13.5406 2.30547C13.4645 1.96016 13.1699 1.70117 12.8145 1.6707C12.4945 1.64531 12.1746 1.63008 11.8496 1.63008V1.625Z" fill="#171717"/>
</g>
<defs>
<clipPath id="clip0_2_187">
<rect width="19.5" height="26" fill="white" transform="translate(0.5)"/>
</clipPath>
</defs>
</svg>
